<?xml version="1.0" encoding="utf-8"?>
<svg version="1.1" xmlns:xlink="http://www.w3.org/1999/xlink" width="13px" height="35px" xmlns="http://www.w3.org/2000/svg">
  <g transform="matrix(1 0 0 1 -776 -503 )">
    <path d="M 12.614062500000001 5.371093749999999  C 12.871354166666668 5.61848958333333  13 5.9114583333333295  13 6.250000000000001  C 13 6.588541666666664  12.871354166666668 6.881510416666664  12.614062500000001 7.128906249999999  C 12.356770833333334 7.376302083333331  12.052083333333334 7.500000000000001  11.700000000000001 7.500000000000001  L 9 7.500000000000001  L 9 27.5  L 11.700000000000001 27.5  C 12.052083333333334 27.5  12.356770833333334 27.623697916666664  12.614062500000001 27.87109375  C 12.871354166666668 28.118489583333336  13 28.411458333333336  13 28.75  C 13 29.088541666666668  12.871354166666668 29.381510416666664  12.614062500000001 29.62890625  L 7.4140625 34.62890625  C 7.156770833333334 34.876302083333336  6.852083333333334 35  6.5 35  C 6.147916666666667 35  5.843229166666667 34.876302083333336  5.5859375 34.62890625  L 0.3859375 29.62890625  C 0.12864583333333354 29.381510416666664  0 29.088541666666668  0 28.75  C 0 28.411458333333336  0.12864583333333354 28.118489583333336  0.3859375 27.87109375  C 0.6432291666666671 27.623697916666664  0.9479166666666671 27.5  1.3 27.5  L 4 27.5  L 4 7.500000000000001  L 1.3 7.500000000000001  C 0.9479166666666671 7.500000000000001  0.6432291666666671 7.376302083333331  0.3859375 7.128906249999999  C 0.12864583333333354 6.881510416666664  0 6.588541666666664  0 6.250000000000001  C 0 5.9114583333333295  0.12864583333333354 5.61848958333333  0.3859375 5.371093749999999  L 5.5859375 0.3710937500000011  C 5.843229166666667 0.12369791666666963  6.147916666666667 0  6.5 0  C 6.852083333333334 0  7.156770833333334 0.12369791666666963  7.4140625 0.3710937500000011  L 12.614062500000001 5.371093749999999  Z " fill-rule="nonzero" fill="#909090" stroke="none" transform="matrix(1 0 0 1 776 503 )" />
  </g>
</svg>