<?xml version="1.0" encoding="utf-8"?>
<svg version="1.1" xmlns:xlink="http://www.w3.org/1999/xlink" width="14px" height="15px" xmlns="http://www.w3.org/2000/svg">
  <g transform="matrix(1 0 0 1 -901 -172 )">
    <path d="M 13.67003367003367 11.212121212121211  C 13.890011223344557 11.447811447811446  14 11.734006734006732  14 12.070707070707071  C 14 12.407407407407408  13.890011223344557 12.693602693602692  13.67003367003367 12.929292929292929  L 12.067340067340067 14.646464646464647  C 11.847362514029182 14.882154882154882  11.580246913580247 15  11.265993265993266 15  C 10.951739618406286 15  10.684624017957352 14.882154882154882  10.464646464646465 14.646464646464647  L 7 10.934343434343436  L 3.5353535353535355 14.646464646464647  C 3.3153759820426494 14.882154882154882  3.048260381593715 15  2.734006734006734 15  C 2.419753086419753 15  2.1526374859708195 14.882154882154882  1.9326599326599327 14.646464646464647  L 0.32996632996632996 12.929292929292929  C 0.10998877665544343 12.693602693602692  0 12.407407407407408  0 12.070707070707071  C 0 11.734006734006732  0.10998877665544343 11.447811447811446  0.32996632996632996 11.212121212121211  L 3.7946127946127945 7.5  L 0.32996632996632996 3.787878787878787  C 0.10998877665544343 3.552188552188551  0 3.265993265993266  0 2.929292929292929  C 0 2.5925925925925926  0.10998877665544343 2.3063973063973044  0.32996632996632996 2.0707070707070714  L 1.9326599326599327 0.3535353535353536  C 2.1526374859708195 0.11784511784511731  2.419753086419753 0  2.734006734006734 0  C 3.048260381593715 0  3.3153759820426494 0.11784511784511731  3.5353535353535355 0.3535353535353536  L 7 4.065656565656567  L 10.464646464646465 0.3535353535353536  C 10.684624017957352 0.11784511784511731  10.951739618406286 0  11.265993265993266 0  C 11.580246913580247 0  11.847362514029182 0.11784511784511731  12.067340067340067 0.3535353535353536  L 13.67003367003367 2.0707070707070714  C 13.890011223344557 2.3063973063973044  14 2.5925925925925926  14 2.929292929292929  C 14 3.265993265993266  13.890011223344557 3.552188552188551  13.67003367003367 3.787878787878787  L 10.205387205387204 7.5  L 13.67003367003367 11.212121212121211  Z " fill-rule="nonzero" fill="#000000" stroke="none" transform="matrix(1 0 0 1 901 172 )" />
  </g>
</svg>